<mxfile host="app.diagrams.net" modified="2023-07-04T00:08:13.275Z" agent="Mozilla/5.0 (Windows NT 10.0; Win64; x64) AppleWebKit/537.36 (KHTML, like Gecko) Chrome/114.0.0.0 Safari/537.36" etag="Af70-8UPe2u4KK2s_SD7" version="21.5.2" type="device">
  <diagram name="Page-1" id="Fhninrc7vYrP6izVyOOb">
    <mxGraphModel dx="1674" dy="756" grid="0" gridSize="10" guides="1" tooltips="1" connect="1" arrows="1" fold="1" page="0" pageScale="1" pageWidth="1400" pageHeight="850" math="0" shadow="0">
      <root>
        <mxCell id="0" />
        <mxCell id="1" parent="0" />
        <mxCell id="i4O2-oKmXaow56ydcxL1-85" value="people&amp;nbsp;" style="rounded=0;whiteSpace=wrap;html=1;" parent="1" vertex="1">
          <mxGeometry x="670" y="318.71" width="120" height="60" as="geometry" />
        </mxCell>
        <mxCell id="i4O2-oKmXaow56ydcxL1-86" value="" style="endArrow=none;html=1;rounded=0;" parent="1" edge="1">
          <mxGeometry width="50" height="50" relative="1" as="geometry">
            <mxPoint x="600" y="288.71" as="sourcePoint" />
            <mxPoint x="670" y="318.71" as="targetPoint" />
          </mxGeometry>
        </mxCell>
        <mxCell id="i4O2-oKmXaow56ydcxL1-87" value="" style="endArrow=none;html=1;rounded=0;" parent="1" edge="1">
          <mxGeometry width="50" height="50" relative="1" as="geometry">
            <mxPoint x="590" y="348.71" as="sourcePoint" />
            <mxPoint x="670" y="348.71" as="targetPoint" />
          </mxGeometry>
        </mxCell>
        <mxCell id="i4O2-oKmXaow56ydcxL1-88" value="" style="endArrow=none;html=1;rounded=0;exitX=0.5;exitY=1;exitDx=0;exitDy=0;" parent="1" source="i4O2-oKmXaow56ydcxL1-95" edge="1">
          <mxGeometry width="50" height="50" relative="1" as="geometry">
            <mxPoint x="689.5" y="258.71" as="sourcePoint" />
            <mxPoint x="689.5" y="318.71" as="targetPoint" />
          </mxGeometry>
        </mxCell>
        <mxCell id="i4O2-oKmXaow56ydcxL1-89" value="" style="endArrow=none;html=1;rounded=0;" parent="1" edge="1">
          <mxGeometry width="50" height="50" relative="1" as="geometry">
            <mxPoint x="750" y="258.71" as="sourcePoint" />
            <mxPoint x="750" y="318.71" as="targetPoint" />
          </mxGeometry>
        </mxCell>
        <mxCell id="i4O2-oKmXaow56ydcxL1-90" value="" style="endArrow=none;html=1;rounded=0;" parent="1" edge="1">
          <mxGeometry width="50" height="50" relative="1" as="geometry">
            <mxPoint x="830" y="268.71" as="sourcePoint" />
            <mxPoint x="790" y="318.71" as="targetPoint" />
          </mxGeometry>
        </mxCell>
        <mxCell id="i4O2-oKmXaow56ydcxL1-91" value="" style="endArrow=none;html=1;rounded=0;" parent="1" edge="1">
          <mxGeometry width="50" height="50" relative="1" as="geometry">
            <mxPoint x="870" y="328.71" as="sourcePoint" />
            <mxPoint x="790" y="348.71" as="targetPoint" />
          </mxGeometry>
        </mxCell>
        <mxCell id="i4O2-oKmXaow56ydcxL1-92" value="" style="endArrow=none;html=1;rounded=0;" parent="1" edge="1">
          <mxGeometry width="50" height="50" relative="1" as="geometry">
            <mxPoint x="860" y="158.71" as="sourcePoint" />
            <mxPoint x="840" y="218.71" as="targetPoint" />
          </mxGeometry>
        </mxCell>
        <mxCell id="i4O2-oKmXaow56ydcxL1-93" value="occupation" style="ellipse;whiteSpace=wrap;html=1;" parent="1" vertex="1">
          <mxGeometry x="510" y="318.71" width="80" height="60" as="geometry" />
        </mxCell>
        <mxCell id="i4O2-oKmXaow56ydcxL1-94" value="phone_number" style="ellipse;whiteSpace=wrap;html=1;" parent="1" vertex="1">
          <mxGeometry x="520" y="248.71" width="80" height="60" as="geometry" />
        </mxCell>
        <mxCell id="i4O2-oKmXaow56ydcxL1-95" value="FirstName" style="ellipse;whiteSpace=wrap;html=1;" parent="1" vertex="1">
          <mxGeometry x="630" y="198.71" width="80" height="60" as="geometry" />
        </mxCell>
        <mxCell id="i4O2-oKmXaow56ydcxL1-96" value="LastName" style="ellipse;whiteSpace=wrap;html=1;" parent="1" vertex="1">
          <mxGeometry x="710" y="198.71" width="80" height="60" as="geometry" />
        </mxCell>
        <mxCell id="i4O2-oKmXaow56ydcxL1-97" value="Address" style="ellipse;whiteSpace=wrap;html=1;rotation=20;" parent="1" vertex="1">
          <mxGeometry x="800" y="218.71" width="80" height="60" as="geometry" />
        </mxCell>
        <mxCell id="i4O2-oKmXaow56ydcxL1-98" value="&lt;u&gt;PersonID&lt;/u&gt;" style="ellipse;whiteSpace=wrap;html=1;rotation=30;" parent="1" vertex="1">
          <mxGeometry x="850" y="278.71" width="80" height="60" as="geometry" />
        </mxCell>
        <mxCell id="i4O2-oKmXaow56ydcxL1-99" value="" style="endArrow=none;html=1;rounded=0;" parent="1" edge="1">
          <mxGeometry width="50" height="50" relative="1" as="geometry">
            <mxPoint x="910" y="188.71" as="sourcePoint" />
            <mxPoint x="860" y="228.71" as="targetPoint" />
          </mxGeometry>
        </mxCell>
        <mxCell id="i4O2-oKmXaow56ydcxL1-100" value="" style="endArrow=none;html=1;rounded=0;" parent="1" edge="1">
          <mxGeometry width="50" height="50" relative="1" as="geometry">
            <mxPoint x="930" y="248.71" as="sourcePoint" />
            <mxPoint x="880" y="248.71" as="targetPoint" />
          </mxGeometry>
        </mxCell>
        <mxCell id="i4O2-oKmXaow56ydcxL1-101" value="" style="endArrow=none;html=1;rounded=0;" parent="1" source="i4O2-oKmXaow56ydcxL1-103" edge="1">
          <mxGeometry width="50" height="50" relative="1" as="geometry">
            <mxPoint x="820" y="158.71" as="sourcePoint" />
            <mxPoint x="820" y="218.71" as="targetPoint" />
          </mxGeometry>
        </mxCell>
        <mxCell id="i4O2-oKmXaow56ydcxL1-102" value="Apartment_Number" style="ellipse;whiteSpace=wrap;html=1;rotation=30;" parent="1" vertex="1">
          <mxGeometry x="806.47" y="96.5" width="102" height="60" as="geometry" />
        </mxCell>
        <mxCell id="i4O2-oKmXaow56ydcxL1-104" value="Province" style="ellipse;whiteSpace=wrap;html=1;rotation=45;" parent="1" vertex="1">
          <mxGeometry x="900" y="148.71" width="70" height="60" as="geometry" />
        </mxCell>
        <mxCell id="i4O2-oKmXaow56ydcxL1-105" value="city" style="ellipse;whiteSpace=wrap;html=1;rotation=45;" parent="1" vertex="1">
          <mxGeometry x="910" y="208.71" width="70" height="60" as="geometry" />
        </mxCell>
        <mxCell id="i4O2-oKmXaow56ydcxL1-106" value="" style="endArrow=none;html=1;rounded=0;" parent="1" source="i4O2-oKmXaow56ydcxL1-110" edge="1">
          <mxGeometry width="50" height="50" relative="1" as="geometry">
            <mxPoint x="735" y="438.71" as="sourcePoint" />
            <mxPoint x="735" y="378.71" as="targetPoint" />
          </mxGeometry>
        </mxCell>
        <mxCell id="i4O2-oKmXaow56ydcxL1-107" value="" style="ellipse;whiteSpace=wrap;html=1;" parent="1" vertex="1">
          <mxGeometry x="710" y="428.71" width="50" height="40" as="geometry" />
        </mxCell>
        <mxCell id="i4O2-oKmXaow56ydcxL1-108" value="" style="ellipse;whiteSpace=wrap;html=1;" parent="1" vertex="1">
          <mxGeometry x="725" y="438.71" width="19.83" height="20" as="geometry" />
        </mxCell>
        <mxCell id="i4O2-oKmXaow56ydcxL1-109" value="" style="endArrow=none;html=1;rounded=0;" parent="1" target="i4O2-oKmXaow56ydcxL1-110" edge="1">
          <mxGeometry width="50" height="50" relative="1" as="geometry">
            <mxPoint x="735" y="438.71" as="sourcePoint" />
            <mxPoint x="735" y="378.71" as="targetPoint" />
          </mxGeometry>
        </mxCell>
        <mxCell id="i4O2-oKmXaow56ydcxL1-110" value="" style="shape=requiredInterface;html=1;verticalLabelPosition=bottom;sketch=0;rotation=90;" parent="1" vertex="1">
          <mxGeometry x="730" y="398.71" width="10" height="20" as="geometry" />
        </mxCell>
        <mxCell id="i4O2-oKmXaow56ydcxL1-111" value="Seller" style="rounded=0;whiteSpace=wrap;html=1;" parent="1" vertex="1">
          <mxGeometry x="850" y="568.71" width="110" height="50" as="geometry" />
        </mxCell>
        <mxCell id="i4O2-oKmXaow56ydcxL1-112" value="Buyer" style="rounded=0;whiteSpace=wrap;html=1;" parent="1" vertex="1">
          <mxGeometry x="679.91" y="568.71" width="110" height="50" as="geometry" />
        </mxCell>
        <mxCell id="i4O2-oKmXaow56ydcxL1-113" value="Renter" style="rounded=0;whiteSpace=wrap;html=1;" parent="1" vertex="1">
          <mxGeometry x="520" y="568.71" width="110" height="50" as="geometry" />
        </mxCell>
        <mxCell id="i4O2-oKmXaow56ydcxL1-114" value="" style="endArrow=none;html=1;rounded=0;entryX=0.008;entryY=0.805;entryDx=0;entryDy=0;entryPerimeter=0;" parent="1" target="i4O2-oKmXaow56ydcxL1-107" edge="1">
          <mxGeometry width="50" height="50" relative="1" as="geometry">
            <mxPoint x="560" y="568.71" as="sourcePoint" />
            <mxPoint x="610" y="518.71" as="targetPoint" />
          </mxGeometry>
        </mxCell>
        <mxCell id="i4O2-oKmXaow56ydcxL1-115" value="" style="endArrow=none;html=1;rounded=0;entryX=0.5;entryY=1;entryDx=0;entryDy=0;" parent="1" target="i4O2-oKmXaow56ydcxL1-107" edge="1">
          <mxGeometry width="50" height="50" relative="1" as="geometry">
            <mxPoint x="735" y="568.71" as="sourcePoint" />
            <mxPoint x="780" y="518.71" as="targetPoint" />
          </mxGeometry>
        </mxCell>
        <mxCell id="i4O2-oKmXaow56ydcxL1-116" value="" style="endArrow=none;html=1;rounded=0;entryX=1;entryY=1;entryDx=0;entryDy=0;" parent="1" target="i4O2-oKmXaow56ydcxL1-107" edge="1">
          <mxGeometry width="50" height="50" relative="1" as="geometry">
            <mxPoint x="910" y="568.71" as="sourcePoint" />
            <mxPoint x="910" y="468.71" as="targetPoint" />
          </mxGeometry>
        </mxCell>
        <mxCell id="i4O2-oKmXaow56ydcxL1-117" value="" style="endArrow=none;html=1;rounded=0;" parent="1" edge="1">
          <mxGeometry width="50" height="50" relative="1" as="geometry">
            <mxPoint x="450" y="593.71" as="sourcePoint" />
            <mxPoint x="520" y="593.71" as="targetPoint" />
          </mxGeometry>
        </mxCell>
        <mxCell id="i4O2-oKmXaow56ydcxL1-118" value="" style="rhombus;whiteSpace=wrap;html=1;" parent="1" vertex="1">
          <mxGeometry x="370" y="558.71" width="90" height="75" as="geometry" />
        </mxCell>
        <mxCell id="i4O2-oKmXaow56ydcxL1-119" value="Have" style="rhombus;whiteSpace=wrap;html=1;" parent="1" vertex="1">
          <mxGeometry x="385" y="568.71" width="60" height="60" as="geometry" />
        </mxCell>
        <mxCell id="i4O2-oKmXaow56ydcxL1-120" value="" style="endArrow=none;html=1;rounded=0;" parent="1" edge="1">
          <mxGeometry width="50" height="50" relative="1" as="geometry">
            <mxPoint x="280" y="600" as="sourcePoint" />
            <mxPoint x="370" y="600" as="targetPoint" />
          </mxGeometry>
        </mxCell>
        <mxCell id="i4O2-oKmXaow56ydcxL1-124" value="" style="verticalLabelPosition=bottom;verticalAlign=top;html=1;shape=mxgraph.basic.frame;dx=10;whiteSpace=wrap;direction=south;" parent="1" vertex="1">
          <mxGeometry x="218" y="550.86" width="60" height="100" as="geometry" />
        </mxCell>
        <mxCell id="i4O2-oKmXaow56ydcxL1-129" value="Dependent" style="text;html=1;align=center;verticalAlign=middle;resizable=0;points=[];autosize=1;strokeColor=none;fillColor=none;rotation=90;" parent="1" vertex="1">
          <mxGeometry x="208" y="584.57" width="80" height="30" as="geometry" />
        </mxCell>
        <mxCell id="i4O2-oKmXaow56ydcxL1-130" value="" style="endArrow=none;html=1;rounded=0;" parent="1" edge="1">
          <mxGeometry width="50" height="50" relative="1" as="geometry">
            <mxPoint x="581.23" y="706.29" as="sourcePoint" />
            <mxPoint x="581.23" y="615" as="targetPoint" />
          </mxGeometry>
        </mxCell>
        <mxCell id="i4O2-oKmXaow56ydcxL1-131" value="" style="endArrow=none;html=1;rounded=0;" parent="1" edge="1">
          <mxGeometry width="50" height="50" relative="1" as="geometry">
            <mxPoint x="574" y="711" as="sourcePoint" />
            <mxPoint x="574.23" y="618.71" as="targetPoint" />
          </mxGeometry>
        </mxCell>
        <mxCell id="i4O2-oKmXaow56ydcxL1-132" value="Participates" style="rhombus;whiteSpace=wrap;html=1;" parent="1" vertex="1">
          <mxGeometry x="542" y="697" width="80" height="80" as="geometry" />
        </mxCell>
        <mxCell id="i4O2-oKmXaow56ydcxL1-133" value="" style="endArrow=none;html=1;rounded=0;" parent="1" edge="1">
          <mxGeometry width="50" height="50" relative="1" as="geometry">
            <mxPoint x="582" y="862" as="sourcePoint" />
            <mxPoint x="582" y="777" as="targetPoint" />
          </mxGeometry>
        </mxCell>
        <mxCell id="i4O2-oKmXaow56ydcxL1-134" value="" style="endArrow=none;html=1;rounded=0;" parent="1" edge="1">
          <mxGeometry width="50" height="50" relative="1" as="geometry">
            <mxPoint x="590" y="857" as="sourcePoint" />
            <mxPoint x="590" y="772" as="targetPoint" />
          </mxGeometry>
        </mxCell>
        <mxCell id="i4O2-oKmXaow56ydcxL1-136" value="Rental_Contract" style="rounded=0;whiteSpace=wrap;html=1;" parent="1" vertex="1">
          <mxGeometry x="522" y="855" width="120" height="60" as="geometry" />
        </mxCell>
        <mxCell id="i4O2-oKmXaow56ydcxL1-137" value="" style="endArrow=none;html=1;rounded=0;" parent="1" target="i4O2-oKmXaow56ydcxL1-138" edge="1">
          <mxGeometry width="50" height="50" relative="1" as="geometry">
            <mxPoint x="614" y="857" as="sourcePoint" />
            <mxPoint x="664" y="807" as="targetPoint" />
          </mxGeometry>
        </mxCell>
        <mxCell id="i4O2-oKmXaow56ydcxL1-138" value="Strart_Date_ Rent" style="ellipse;whiteSpace=wrap;html=1;" parent="1" vertex="1">
          <mxGeometry x="622" y="746" width="86" height="63" as="geometry" />
        </mxCell>
        <mxCell id="i4O2-oKmXaow56ydcxL1-139" value="" style="endArrow=none;html=1;rounded=0;" parent="1" target="i4O2-oKmXaow56ydcxL1-140" edge="1">
          <mxGeometry width="50" height="50" relative="1" as="geometry">
            <mxPoint x="524" y="857" as="sourcePoint" />
            <mxPoint x="483" y="806" as="targetPoint" />
          </mxGeometry>
        </mxCell>
        <mxCell id="i4O2-oKmXaow56ydcxL1-140" value="End_Date_Rent" style="ellipse;whiteSpace=wrap;html=1;rotation=-30;" parent="1" vertex="1">
          <mxGeometry x="388.33" y="739.75" width="95" height="80" as="geometry" />
        </mxCell>
        <mxCell id="i4O2-oKmXaow56ydcxL1-144" value="" style="endArrow=none;html=1;rounded=0;" parent="1" edge="1">
          <mxGeometry width="50" height="50" relative="1" as="geometry">
            <mxPoint x="421" y="886" as="sourcePoint" />
            <mxPoint x="522" y="886" as="targetPoint" />
          </mxGeometry>
        </mxCell>
        <mxCell id="i4O2-oKmXaow56ydcxL1-147" value="Purchase_Contract" style="rounded=0;whiteSpace=wrap;html=1;" parent="1" vertex="1">
          <mxGeometry x="780" y="902" width="120" height="60" as="geometry" />
        </mxCell>
        <mxCell id="i4O2-oKmXaow56ydcxL1-148" value="Participates" style="rhombus;whiteSpace=wrap;html=1;" parent="1" vertex="1">
          <mxGeometry x="744.83" y="760.75" width="64" height="59" as="geometry" />
        </mxCell>
        <mxCell id="i4O2-oKmXaow56ydcxL1-149" value="Participates" style="rhombus;whiteSpace=wrap;html=1;" parent="1" vertex="1">
          <mxGeometry x="850" y="755" width="74" height="64.75" as="geometry" />
        </mxCell>
        <mxCell id="nzRQp5wiSX-RRfXadvDQ-1" value="" style="endArrow=none;html=1;rounded=0;" parent="1" edge="1">
          <mxGeometry width="50" height="50" relative="1" as="geometry">
            <mxPoint x="472" y="965" as="sourcePoint" />
            <mxPoint x="522" y="915" as="targetPoint" />
          </mxGeometry>
        </mxCell>
        <mxCell id="nzRQp5wiSX-RRfXadvDQ-3" value="&lt;u&gt;Rental_Contract_ID&lt;/u&gt;" style="ellipse;whiteSpace=wrap;html=1;" parent="1" vertex="1">
          <mxGeometry x="394" y="958" width="115" height="58" as="geometry" />
        </mxCell>
        <mxCell id="nzRQp5wiSX-RRfXadvDQ-4" value="" style="endArrow=none;html=1;rounded=0;entryX=0.5;entryY=1;entryDx=0;entryDy=0;" parent="1" target="i4O2-oKmXaow56ydcxL1-112" edge="1">
          <mxGeometry width="50" height="50" relative="1" as="geometry">
            <mxPoint x="777" y="764" as="sourcePoint" />
            <mxPoint x="827" y="714" as="targetPoint" />
          </mxGeometry>
        </mxCell>
        <mxCell id="nzRQp5wiSX-RRfXadvDQ-5" value="" style="endArrow=none;html=1;rounded=0;entryX=0.5;entryY=1;entryDx=0;entryDy=0;" parent="1" edge="1">
          <mxGeometry width="50" height="50" relative="1" as="geometry">
            <mxPoint x="780.17" y="763.71" as="sourcePoint" />
            <mxPoint x="738.17" y="618.71" as="targetPoint" />
          </mxGeometry>
        </mxCell>
        <mxCell id="nzRQp5wiSX-RRfXadvDQ-6" value="" style="endArrow=none;html=1;rounded=0;" parent="1" edge="1">
          <mxGeometry width="50" height="50" relative="1" as="geometry">
            <mxPoint x="797" y="902" as="sourcePoint" />
            <mxPoint x="776" y="820" as="targetPoint" />
          </mxGeometry>
        </mxCell>
        <mxCell id="nzRQp5wiSX-RRfXadvDQ-7" value="" style="endArrow=none;html=1;rounded=0;" parent="1" edge="1">
          <mxGeometry width="50" height="50" relative="1" as="geometry">
            <mxPoint x="885" y="755" as="sourcePoint" />
            <mxPoint x="885" y="618" as="targetPoint" />
          </mxGeometry>
        </mxCell>
        <mxCell id="nzRQp5wiSX-RRfXadvDQ-8" value="" style="endArrow=none;html=1;rounded=0;" parent="1" edge="1">
          <mxGeometry width="50" height="50" relative="1" as="geometry">
            <mxPoint x="889.5" y="755.71" as="sourcePoint" />
            <mxPoint x="889.5" y="618.71" as="targetPoint" />
          </mxGeometry>
        </mxCell>
        <mxCell id="nzRQp5wiSX-RRfXadvDQ-9" value="" style="endArrow=none;html=1;rounded=0;entryX=0.5;entryY=1;entryDx=0;entryDy=0;" parent="1" target="i4O2-oKmXaow56ydcxL1-149" edge="1">
          <mxGeometry width="50" height="50" relative="1" as="geometry">
            <mxPoint x="879.5" y="900" as="sourcePoint" />
            <mxPoint x="879.5" y="763" as="targetPoint" />
          </mxGeometry>
        </mxCell>
        <mxCell id="nzRQp5wiSX-RRfXadvDQ-10" value="" style="endArrow=none;html=1;rounded=0;" parent="1" edge="1">
          <mxGeometry width="50" height="50" relative="1" as="geometry">
            <mxPoint x="715" y="936" as="sourcePoint" />
            <mxPoint x="780.17" y="934" as="targetPoint" />
          </mxGeometry>
        </mxCell>
        <mxCell id="nzRQp5wiSX-RRfXadvDQ-11" value="&lt;font style=&quot;font-size: 11px;&quot;&gt;&lt;u&gt;Purchase_Contract_ID&lt;/u&gt;&lt;/font&gt;" style="ellipse;whiteSpace=wrap;html=1;rotation=-90;" parent="1" vertex="1">
          <mxGeometry x="629.83" y="904" width="115" height="58" as="geometry" />
        </mxCell>
        <mxCell id="nzRQp5wiSX-RRfXadvDQ-12" value="Banks" style="rounded=0;whiteSpace=wrap;html=1;" parent="1" vertex="1">
          <mxGeometry x="999" y="566" width="110" height="50" as="geometry" />
        </mxCell>
        <mxCell id="nzRQp5wiSX-RRfXadvDQ-13" value="" style="endArrow=none;html=1;rounded=0;" parent="1" edge="1">
          <mxGeometry width="50" height="50" relative="1" as="geometry">
            <mxPoint x="1009" y="566" as="sourcePoint" />
            <mxPoint x="999" y="510" as="targetPoint" />
          </mxGeometry>
        </mxCell>
        <mxCell id="nzRQp5wiSX-RRfXadvDQ-14" value="&lt;u&gt;Bank_ID&lt;/u&gt;" style="ellipse;whiteSpace=wrap;html=1;" parent="1" vertex="1">
          <mxGeometry x="955" y="447" width="86" height="63" as="geometry" />
        </mxCell>
        <mxCell id="nzRQp5wiSX-RRfXadvDQ-15" value="" style="endArrow=none;html=1;rounded=0;" parent="1" edge="1">
          <mxGeometry width="50" height="50" relative="1" as="geometry">
            <mxPoint x="1051" y="564" as="sourcePoint" />
            <mxPoint x="1061" y="499" as="targetPoint" />
          </mxGeometry>
        </mxCell>
        <mxCell id="nzRQp5wiSX-RRfXadvDQ-16" value="Name" style="ellipse;whiteSpace=wrap;html=1;" parent="1" vertex="1">
          <mxGeometry x="1041" y="438.71" width="73" height="63" as="geometry" />
        </mxCell>
        <mxCell id="nzRQp5wiSX-RRfXadvDQ-17" value="" style="endArrow=none;html=1;rounded=0;entryX=0.5;entryY=1;entryDx=0;entryDy=0;" parent="1" target="nzRQp5wiSX-RRfXadvDQ-18" edge="1">
          <mxGeometry width="50" height="50" relative="1" as="geometry">
            <mxPoint x="1104" y="568.71" as="sourcePoint" />
            <mxPoint x="1114" y="503.71" as="targetPoint" />
          </mxGeometry>
        </mxCell>
        <mxCell id="nzRQp5wiSX-RRfXadvDQ-18" value="&lt;font style=&quot;font-size: 11px;&quot;&gt;Amount_of_Mortgage&lt;/font&gt;" style="ellipse;whiteSpace=wrap;html=1;rotation=35;" parent="1" vertex="1">
          <mxGeometry x="1119.91" y="468.71" width="98" height="63" as="geometry" />
        </mxCell>
        <mxCell id="nzRQp5wiSX-RRfXadvDQ-19" value="" style="endArrow=none;html=1;rounded=0;" parent="1" edge="1">
          <mxGeometry width="50" height="50" relative="1" as="geometry">
            <mxPoint x="1058" y="753" as="sourcePoint" />
            <mxPoint x="1058" y="616" as="targetPoint" />
          </mxGeometry>
        </mxCell>
        <mxCell id="nzRQp5wiSX-RRfXadvDQ-20" value="" style="endArrow=none;html=1;rounded=0;" parent="1" edge="1">
          <mxGeometry width="50" height="50" relative="1" as="geometry">
            <mxPoint x="1053.55" y="753" as="sourcePoint" />
            <mxPoint x="1053.55" y="616" as="targetPoint" />
          </mxGeometry>
        </mxCell>
        <mxCell id="nzRQp5wiSX-RRfXadvDQ-21" value="Participates" style="rhombus;whiteSpace=wrap;html=1;rotation=15;" parent="1" vertex="1">
          <mxGeometry x="1017" y="750" width="74" height="64.75" as="geometry" />
        </mxCell>
        <mxCell id="nzRQp5wiSX-RRfXadvDQ-22" value="" style="endArrow=none;html=1;rounded=0;entryX=0.5;entryY=1;entryDx=0;entryDy=0;exitX=1;exitY=0;exitDx=0;exitDy=0;" parent="1" source="i4O2-oKmXaow56ydcxL1-147" edge="1">
          <mxGeometry width="50" height="50" relative="1" as="geometry">
            <mxPoint x="1041" y="894.75" as="sourcePoint" />
            <mxPoint x="1048.5" y="814.75" as="targetPoint" />
          </mxGeometry>
        </mxCell>
        <mxCell id="nzRQp5wiSX-RRfXadvDQ-23" value="Properties" style="rounded=0;whiteSpace=wrap;html=1;" parent="1" vertex="1">
          <mxGeometry x="1198" y="1309.62" width="120" height="60" as="geometry" />
        </mxCell>
        <mxCell id="nzRQp5wiSX-RRfXadvDQ-24" value="Description&amp;nbsp;" style="ellipse;whiteSpace=wrap;html=1;" parent="1" vertex="1">
          <mxGeometry x="1339" y="1227.62" width="86" height="57" as="geometry" />
        </mxCell>
        <mxCell id="nzRQp5wiSX-RRfXadvDQ-25" value="Address" style="ellipse;whiteSpace=wrap;html=1;" parent="1" vertex="1">
          <mxGeometry x="1161" y="1210.62" width="86" height="51" as="geometry" />
        </mxCell>
        <mxCell id="nzRQp5wiSX-RRfXadvDQ-26" value="Price" style="ellipse;whiteSpace=wrap;html=1;" parent="1" vertex="1">
          <mxGeometry x="1250" y="1212.62" width="86" height="49" as="geometry" />
        </mxCell>
        <mxCell id="nzRQp5wiSX-RRfXadvDQ-27" value="&lt;u&gt;Property_ID&lt;/u&gt;" style="ellipse;whiteSpace=wrap;html=1;" parent="1" vertex="1">
          <mxGeometry x="1093.83" y="1233.12" width="86" height="46" as="geometry" />
        </mxCell>
        <mxCell id="nzRQp5wiSX-RRfXadvDQ-28" value="" style="ellipse;whiteSpace=wrap;html=1;" parent="1" vertex="1">
          <mxGeometry x="1370" y="1286.62" width="86" height="57" as="geometry" />
        </mxCell>
        <mxCell id="nzRQp5wiSX-RRfXadvDQ-29" value="Ownership" style="ellipse;whiteSpace=wrap;html=1;" parent="1" vertex="1">
          <mxGeometry x="1096" y="1276" width="86" height="48" as="geometry" />
        </mxCell>
        <mxCell id="nzRQp5wiSX-RRfXadvDQ-30" value="Photos" style="ellipse;whiteSpace=wrap;html=1;" parent="1" vertex="1">
          <mxGeometry x="1379" y="1290.62" width="68" height="49" as="geometry" />
        </mxCell>
        <mxCell id="nzRQp5wiSX-RRfXadvDQ-31" value="ListedSince" style="ellipse;whiteSpace=wrap;html=1;" parent="1" vertex="1">
          <mxGeometry x="1382" y="1349.62" width="86" height="48" as="geometry" />
        </mxCell>
        <mxCell id="nzRQp5wiSX-RRfXadvDQ-32" value="" style="endArrow=none;html=1;rounded=0;entryX=0;entryY=0.5;entryDx=0;entryDy=0;" parent="1" target="nzRQp5wiSX-RRfXadvDQ-31" edge="1">
          <mxGeometry width="50" height="50" relative="1" as="geometry">
            <mxPoint x="1318" y="1361.62" as="sourcePoint" />
            <mxPoint x="1368" y="1311.62" as="targetPoint" />
          </mxGeometry>
        </mxCell>
        <mxCell id="nzRQp5wiSX-RRfXadvDQ-33" value="" style="endArrow=none;html=1;rounded=0;entryX=-0.017;entryY=0.622;entryDx=0;entryDy=0;entryPerimeter=0;" parent="1" target="nzRQp5wiSX-RRfXadvDQ-28" edge="1">
          <mxGeometry width="50" height="50" relative="1" as="geometry">
            <mxPoint x="1318" y="1331.62" as="sourcePoint" />
            <mxPoint x="1382" y="1343.62" as="targetPoint" />
          </mxGeometry>
        </mxCell>
        <mxCell id="nzRQp5wiSX-RRfXadvDQ-34" value="" style="endArrow=none;html=1;rounded=0;entryX=0.251;entryY=0.943;entryDx=0;entryDy=0;entryPerimeter=0;" parent="1" target="nzRQp5wiSX-RRfXadvDQ-24" edge="1">
          <mxGeometry width="50" height="50" relative="1" as="geometry">
            <mxPoint x="1315" y="1309.62" as="sourcePoint" />
            <mxPoint x="1379" y="1321.62" as="targetPoint" />
          </mxGeometry>
        </mxCell>
        <mxCell id="nzRQp5wiSX-RRfXadvDQ-35" value="" style="endArrow=none;html=1;rounded=0;entryX=0.652;entryY=-0.059;entryDx=0;entryDy=0;entryPerimeter=0;" parent="1" target="nzRQp5wiSX-RRfXadvDQ-23" edge="1">
          <mxGeometry width="50" height="50" relative="1" as="geometry">
            <mxPoint x="1285" y="1260.62" as="sourcePoint" />
            <mxPoint x="1349" y="1272.62" as="targetPoint" />
          </mxGeometry>
        </mxCell>
        <mxCell id="nzRQp5wiSX-RRfXadvDQ-37" value="" style="endArrow=none;html=1;rounded=0;entryX=0.25;entryY=0;entryDx=0;entryDy=0;" parent="1" target="nzRQp5wiSX-RRfXadvDQ-23" edge="1">
          <mxGeometry width="50" height="50" relative="1" as="geometry">
            <mxPoint x="1208.5" y="1261.62" as="sourcePoint" />
            <mxPoint x="1199.5" y="1306.62" as="targetPoint" />
          </mxGeometry>
        </mxCell>
        <mxCell id="nzRQp5wiSX-RRfXadvDQ-38" value="" style="endArrow=none;html=1;rounded=0;" parent="1" edge="1">
          <mxGeometry width="50" height="50" relative="1" as="geometry">
            <mxPoint x="1169" y="1272.62" as="sourcePoint" />
            <mxPoint x="1196" y="1311.62" as="targetPoint" />
          </mxGeometry>
        </mxCell>
        <mxCell id="nzRQp5wiSX-RRfXadvDQ-39" value="" style="endArrow=none;html=1;rounded=0;entryX=0;entryY=0.5;entryDx=0;entryDy=0;" parent="1" target="nzRQp5wiSX-RRfXadvDQ-23" edge="1">
          <mxGeometry width="50" height="50" relative="1" as="geometry">
            <mxPoint x="1165" y="1319.62" as="sourcePoint" />
            <mxPoint x="1192" y="1358.62" as="targetPoint" />
          </mxGeometry>
        </mxCell>
        <mxCell id="nzRQp5wiSX-RRfXadvDQ-41" value="" style="endArrow=none;html=1;rounded=0;" parent="1" edge="1">
          <mxGeometry width="50" height="50" relative="1" as="geometry">
            <mxPoint x="1218.83" y="1144.33" as="sourcePoint" />
            <mxPoint x="1203" y="1204.62" as="targetPoint" />
          </mxGeometry>
        </mxCell>
        <mxCell id="nzRQp5wiSX-RRfXadvDQ-42" value="" style="endArrow=none;html=1;rounded=0;" parent="1" edge="1">
          <mxGeometry width="50" height="50" relative="1" as="geometry">
            <mxPoint x="1268.83" y="1174.33" as="sourcePoint" />
            <mxPoint x="1218.83" y="1214.33" as="targetPoint" />
          </mxGeometry>
        </mxCell>
        <mxCell id="nzRQp5wiSX-RRfXadvDQ-43" value="" style="endArrow=none;html=1;rounded=0;" parent="1" edge="1">
          <mxGeometry width="50" height="50" relative="1" as="geometry">
            <mxPoint x="1166.5" y="1223" as="sourcePoint" />
            <mxPoint x="1100" y="1182" as="targetPoint" />
          </mxGeometry>
        </mxCell>
        <mxCell id="nzRQp5wiSX-RRfXadvDQ-44" value="" style="endArrow=none;html=1;rounded=0;" parent="1" source="nzRQp5wiSX-RRfXadvDQ-46" edge="1">
          <mxGeometry width="50" height="50" relative="1" as="geometry">
            <mxPoint x="1178.83" y="1144.33" as="sourcePoint" />
            <mxPoint x="1191" y="1209.62" as="targetPoint" />
          </mxGeometry>
        </mxCell>
        <mxCell id="nzRQp5wiSX-RRfXadvDQ-45" value="Apartment_Number" style="ellipse;whiteSpace=wrap;html=1;rotation=30;" parent="1" vertex="1">
          <mxGeometry x="1175.73" y="1080.54" width="105.83" height="60" as="geometry" />
        </mxCell>
        <mxCell id="nzRQp5wiSX-RRfXadvDQ-46" value="Street" style="ellipse;whiteSpace=wrap;html=1;rotation=-15;" parent="1" vertex="1">
          <mxGeometry x="1112" y="1095" width="70" height="60" as="geometry" />
        </mxCell>
        <mxCell id="nzRQp5wiSX-RRfXadvDQ-47" value="Province" style="ellipse;whiteSpace=wrap;html=1;rotation=45;" parent="1" vertex="1">
          <mxGeometry x="1258.83" y="1134.33" width="70" height="60" as="geometry" />
        </mxCell>
        <mxCell id="nzRQp5wiSX-RRfXadvDQ-49" value="city" style="ellipse;whiteSpace=wrap;html=1;rotation=-15;" parent="1" vertex="1">
          <mxGeometry x="1049.91" y="1130" width="70" height="60" as="geometry" />
        </mxCell>
        <mxCell id="nzRQp5wiSX-RRfXadvDQ-52" value="" style="endArrow=none;html=1;rounded=0;" parent="1" source="5etwCpMxE4oLLcc9KyQS-1" edge="1">
          <mxGeometry width="50" height="50" relative="1" as="geometry">
            <mxPoint x="1131" y="1375.62" as="sourcePoint" />
            <mxPoint x="1202" y="1369.62" as="targetPoint" />
          </mxGeometry>
        </mxCell>
        <mxCell id="nzRQp5wiSX-RRfXadvDQ-54" value="" style="endArrow=none;html=1;rounded=0;entryX=0.25;entryY=1;entryDx=0;entryDy=0;" parent="1" target="nzRQp5wiSX-RRfXadvDQ-23" edge="1">
          <mxGeometry width="50" height="50" relative="1" as="geometry">
            <mxPoint x="1202" y="1400.62" as="sourcePoint" />
            <mxPoint x="1234.5" y="1369.62" as="targetPoint" />
          </mxGeometry>
        </mxCell>
        <mxCell id="nzRQp5wiSX-RRfXadvDQ-55" value="" style="endArrow=none;html=1;rounded=0;entryX=0.118;entryY=1.044;entryDx=0;entryDy=0;entryPerimeter=0;" parent="1" edge="1">
          <mxGeometry width="50" height="50" relative="1" as="geometry">
            <mxPoint x="1251" y="1429.62" as="sourcePoint" />
            <mxPoint x="1258.83" y="1367.62" as="targetPoint" />
          </mxGeometry>
        </mxCell>
        <mxCell id="nzRQp5wiSX-RRfXadvDQ-56" value="" style="endArrow=none;html=1;rounded=0;entryX=0.118;entryY=1.044;entryDx=0;entryDy=0;entryPerimeter=0;" parent="1" edge="1">
          <mxGeometry width="50" height="50" relative="1" as="geometry">
            <mxPoint x="1294" y="1402.62" as="sourcePoint" />
            <mxPoint x="1284.83" y="1369.62" as="targetPoint" />
          </mxGeometry>
        </mxCell>
        <mxCell id="nzRQp5wiSX-RRfXadvDQ-57" value="" style="endArrow=none;html=1;rounded=0;entryX=0.118;entryY=1.044;entryDx=0;entryDy=0;entryPerimeter=0;" parent="1" edge="1">
          <mxGeometry width="50" height="50" relative="1" as="geometry">
            <mxPoint x="1339" y="1391.62" as="sourcePoint" />
            <mxPoint x="1318" y="1366.62" as="targetPoint" />
          </mxGeometry>
        </mxCell>
        <mxCell id="nzRQp5wiSX-RRfXadvDQ-58" value="Agriculture" style="rounded=0;whiteSpace=wrap;html=1;" parent="1" vertex="1">
          <mxGeometry x="1053" y="1357.62" width="80.17" height="53.38" as="geometry" />
        </mxCell>
        <mxCell id="nzRQp5wiSX-RRfXadvDQ-59" value="Parking" style="rounded=0;whiteSpace=wrap;html=1;" parent="1" vertex="1">
          <mxGeometry x="1067" y="1397.62" width="80.17" height="43" as="geometry" />
        </mxCell>
        <mxCell id="nzRQp5wiSX-RRfXadvDQ-60" value="Recreational" style="rounded=0;whiteSpace=wrap;html=1;" parent="1" vertex="1">
          <mxGeometry x="1360" y="1400.62" width="80.17" height="43" as="geometry" />
        </mxCell>
        <mxCell id="nzRQp5wiSX-RRfXadvDQ-61" value="Condo" style="rounded=0;whiteSpace=wrap;html=1;" parent="1" vertex="1">
          <mxGeometry x="1279.83" y="1432.62" width="80.17" height="43" as="geometry" />
        </mxCell>
        <mxCell id="nzRQp5wiSX-RRfXadvDQ-62" value="Detached House" style="rounded=0;whiteSpace=wrap;html=1;" parent="1" vertex="1">
          <mxGeometry x="1128.83" y="1443.62" width="80.17" height="43" as="geometry" />
        </mxCell>
        <mxCell id="nzRQp5wiSX-RRfXadvDQ-63" value="Land" style="rounded=0;whiteSpace=wrap;html=1;" parent="1" vertex="1">
          <mxGeometry x="1215" y="1479.62" width="80.17" height="43" as="geometry" />
        </mxCell>
        <mxCell id="5etwCpMxE4oLLcc9KyQS-2" value="" style="endArrow=none;html=1;rounded=0;" parent="1" target="5etwCpMxE4oLLcc9KyQS-1" edge="1">
          <mxGeometry width="50" height="50" relative="1" as="geometry">
            <mxPoint x="1131" y="1375.62" as="sourcePoint" />
            <mxPoint x="1202" y="1369.62" as="targetPoint" />
          </mxGeometry>
        </mxCell>
        <mxCell id="5etwCpMxE4oLLcc9KyQS-1" value="" style="shape=requiredInterface;html=1;verticalLabelPosition=bottom;sketch=0;direction=west;" parent="1" vertex="1">
          <mxGeometry x="1147.17" y="1363.62" width="10" height="20" as="geometry" />
        </mxCell>
        <mxCell id="5etwCpMxE4oLLcc9KyQS-8" value="" style="endArrow=none;html=1;rounded=0;exitX=1;exitY=0;exitDx=0;exitDy=0;" parent="1" source="nzRQp5wiSX-RRfXadvDQ-59" target="5etwCpMxE4oLLcc9KyQS-4" edge="1">
          <mxGeometry width="50" height="50" relative="1" as="geometry">
            <mxPoint x="1147" y="1397.62" as="sourcePoint" />
            <mxPoint x="1201" y="1369.62" as="targetPoint" />
          </mxGeometry>
        </mxCell>
        <mxCell id="5etwCpMxE4oLLcc9KyQS-4" value="" style="shape=requiredInterface;html=1;verticalLabelPosition=bottom;sketch=0;direction=west;rotation=-15;" parent="1" vertex="1">
          <mxGeometry x="1161" y="1383.62" width="10" height="20" as="geometry" />
        </mxCell>
        <mxCell id="5etwCpMxE4oLLcc9KyQS-11" value="" style="endArrow=none;html=1;rounded=0;entryX=0.077;entryY=0.963;entryDx=0;entryDy=0;entryPerimeter=0;exitX=1;exitY=0.5;exitDx=0;exitDy=0;exitPerimeter=0;" parent="1" source="5etwCpMxE4oLLcc9KyQS-4" target="nzRQp5wiSX-RRfXadvDQ-23" edge="1">
          <mxGeometry width="50" height="50" relative="1" as="geometry">
            <mxPoint x="1161.83" y="1397.62" as="sourcePoint" />
            <mxPoint x="1198.83" y="1373.62" as="targetPoint" />
          </mxGeometry>
        </mxCell>
        <mxCell id="5etwCpMxE4oLLcc9KyQS-14" value="" style="rounded=0;orthogonalLoop=1;jettySize=auto;html=1;endArrow=halfCircle;endFill=0;endSize=6;strokeWidth=1;sketch=0;fontSize=12;curved=1;" parent="1" edge="1">
          <mxGeometry relative="1" as="geometry">
            <mxPoint x="1176" y="1444.62" as="sourcePoint" />
            <mxPoint x="1204" y="1394.62" as="targetPoint" />
          </mxGeometry>
        </mxCell>
        <mxCell id="5etwCpMxE4oLLcc9KyQS-16" value="" style="rounded=0;orthogonalLoop=1;jettySize=auto;html=1;endArrow=halfCircle;endFill=0;endSize=6;strokeWidth=1;sketch=0;fontSize=12;curved=1;" parent="1" edge="1">
          <mxGeometry relative="1" as="geometry">
            <mxPoint x="1245" y="1481.62" as="sourcePoint" />
            <mxPoint x="1251" y="1421.62" as="targetPoint" />
          </mxGeometry>
        </mxCell>
        <mxCell id="5etwCpMxE4oLLcc9KyQS-17" value="" style="ellipse;whiteSpace=wrap;html=1;align=center;aspect=fixed;fillColor=none;strokeColor=none;resizable=0;perimeter=centerPerimeter;rotatable=0;allowArrows=0;points=[];outlineConnect=1;" parent="1" vertex="1">
          <mxGeometry x="1215" y="1357.62" width="10" height="10" as="geometry" />
        </mxCell>
        <mxCell id="5etwCpMxE4oLLcc9KyQS-18" value="" style="rounded=0;orthogonalLoop=1;jettySize=auto;html=1;endArrow=halfCircle;endFill=0;endSize=6;strokeWidth=1;sketch=0;fontSize=12;curved=1;" parent="1" source="nzRQp5wiSX-RRfXadvDQ-61" edge="1">
          <mxGeometry relative="1" as="geometry">
            <mxPoint x="1227" y="1351.62" as="sourcePoint" />
            <mxPoint x="1294" y="1400.62" as="targetPoint" />
          </mxGeometry>
        </mxCell>
        <mxCell id="5etwCpMxE4oLLcc9KyQS-19" value="" style="ellipse;whiteSpace=wrap;html=1;align=center;aspect=fixed;fillColor=none;strokeColor=none;resizable=0;perimeter=centerPerimeter;rotatable=0;allowArrows=0;points=[];outlineConnect=1;" parent="1" vertex="1">
          <mxGeometry x="1202" y="1346.62" width="10" height="10" as="geometry" />
        </mxCell>
        <mxCell id="5etwCpMxE4oLLcc9KyQS-20" value="" style="rounded=0;orthogonalLoop=1;jettySize=auto;html=1;endArrow=halfCircle;endFill=0;endSize=6;strokeWidth=1;sketch=0;fontSize=12;curved=1;" parent="1" edge="1">
          <mxGeometry relative="1" as="geometry">
            <mxPoint x="1360" y="1420.62" as="sourcePoint" />
            <mxPoint x="1333" y="1383.62" as="targetPoint" />
          </mxGeometry>
        </mxCell>
        <mxCell id="5etwCpMxE4oLLcc9KyQS-21" value="" style="ellipse;whiteSpace=wrap;html=1;align=center;aspect=fixed;fillColor=none;strokeColor=none;resizable=0;perimeter=centerPerimeter;rotatable=0;allowArrows=0;points=[];outlineConnect=1;" parent="1" vertex="1">
          <mxGeometry x="1202" y="1346.62" width="10" height="10" as="geometry" />
        </mxCell>
        <mxCell id="5etwCpMxE4oLLcc9KyQS-22" value="Crop_Type" style="ellipse;whiteSpace=wrap;html=1;rotation=-15;" parent="1" vertex="1">
          <mxGeometry x="947" y="1366.62" width="68" height="66" as="geometry" />
        </mxCell>
        <mxCell id="5etwCpMxE4oLLcc9KyQS-24" value="Yard_Size" style="ellipse;whiteSpace=wrap;html=1;rotation=0;" parent="1" vertex="1">
          <mxGeometry x="1075" y="1508.62" width="68" height="66" as="geometry" />
        </mxCell>
        <mxCell id="5etwCpMxE4oLLcc9KyQS-25" value="Area" style="ellipse;whiteSpace=wrap;html=1;rotation=0;" parent="1" vertex="1">
          <mxGeometry x="1201" y="1545.62" width="68" height="66" as="geometry" />
        </mxCell>
        <mxCell id="5etwCpMxE4oLLcc9KyQS-26" value="Condo_Fee" style="ellipse;whiteSpace=wrap;html=1;rotation=0;" parent="1" vertex="1">
          <mxGeometry x="1328.83" y="1522.62" width="68.17" height="67" as="geometry" />
        </mxCell>
        <mxCell id="5etwCpMxE4oLLcc9KyQS-27" value="Facilities" style="ellipse;whiteSpace=wrap;html=1;rotation=0;" parent="1" vertex="1">
          <mxGeometry x="1430" y="1467.62" width="68.17" height="67" as="geometry" />
        </mxCell>
        <mxCell id="5etwCpMxE4oLLcc9KyQS-28" value="" style="endArrow=none;html=1;rounded=0;entryX=0;entryY=0.5;entryDx=0;entryDy=0;" parent="1" target="nzRQp5wiSX-RRfXadvDQ-58" edge="1">
          <mxGeometry width="50" height="50" relative="1" as="geometry">
            <mxPoint x="1009.9999999999999" y="1389.62" as="sourcePoint" />
            <mxPoint x="1060" y="1339.62" as="targetPoint" />
          </mxGeometry>
        </mxCell>
        <mxCell id="5etwCpMxE4oLLcc9KyQS-29" value="" style="endArrow=none;html=1;rounded=0;" parent="1" source="5etwCpMxE4oLLcc9KyQS-23" edge="1">
          <mxGeometry width="50" height="50" relative="1" as="geometry">
            <mxPoint x="1046" y="1458.62" as="sourcePoint" />
            <mxPoint x="1067" y="1434.62" as="targetPoint" />
          </mxGeometry>
        </mxCell>
        <mxCell id="5etwCpMxE4oLLcc9KyQS-30" value="" style="endArrow=none;html=1;rounded=0;entryX=0;entryY=1;entryDx=0;entryDy=0;" parent="1" target="nzRQp5wiSX-RRfXadvDQ-62" edge="1">
          <mxGeometry width="50" height="50" relative="1" as="geometry">
            <mxPoint x="1124" y="1512.62" as="sourcePoint" />
            <mxPoint x="1174" y="1462.62" as="targetPoint" />
          </mxGeometry>
        </mxCell>
        <mxCell id="5etwCpMxE4oLLcc9KyQS-31" value="" style="endArrow=none;html=1;rounded=0;exitX=0.5;exitY=0;exitDx=0;exitDy=0;" parent="1" source="5etwCpMxE4oLLcc9KyQS-25" target="nzRQp5wiSX-RRfXadvDQ-63" edge="1">
          <mxGeometry width="50" height="50" relative="1" as="geometry">
            <mxPoint x="1266" y="1566.62" as="sourcePoint" />
            <mxPoint x="1316" y="1516.62" as="targetPoint" />
          </mxGeometry>
        </mxCell>
        <mxCell id="5etwCpMxE4oLLcc9KyQS-32" value="" style="endArrow=none;html=1;rounded=0;entryX=0.75;entryY=1;entryDx=0;entryDy=0;" parent="1" target="nzRQp5wiSX-RRfXadvDQ-61" edge="1">
          <mxGeometry width="50" height="50" relative="1" as="geometry">
            <mxPoint x="1349" y="1525.62" as="sourcePoint" />
            <mxPoint x="1399" y="1475.62" as="targetPoint" />
          </mxGeometry>
        </mxCell>
        <mxCell id="5etwCpMxE4oLLcc9KyQS-33" value="" style="endArrow=none;html=1;rounded=0;entryX=0.669;entryY=1.014;entryDx=0;entryDy=0;entryPerimeter=0;" parent="1" target="nzRQp5wiSX-RRfXadvDQ-60" edge="1">
          <mxGeometry width="50" height="50" relative="1" as="geometry">
            <mxPoint x="1459" y="1467.62" as="sourcePoint" />
            <mxPoint x="1509" y="1417.62" as="targetPoint" />
          </mxGeometry>
        </mxCell>
        <mxCell id="5etwCpMxE4oLLcc9KyQS-34" value="" style="endArrow=none;html=1;rounded=0;" parent="1" target="5etwCpMxE4oLLcc9KyQS-23" edge="1">
          <mxGeometry width="50" height="50" relative="1" as="geometry">
            <mxPoint x="1046" y="1458.62" as="sourcePoint" />
            <mxPoint x="1067" y="1434.62" as="targetPoint" />
          </mxGeometry>
        </mxCell>
        <mxCell id="5etwCpMxE4oLLcc9KyQS-23" value="Parking_Type" style="ellipse;whiteSpace=wrap;html=1;rotation=0;" parent="1" vertex="1">
          <mxGeometry x="993" y="1453" width="74" height="56.62" as="geometry" />
        </mxCell>
        <mxCell id="5etwCpMxE4oLLcc9KyQS-35" value="BeingRented" style="rhombus;whiteSpace=wrap;html=1;" parent="1" vertex="1">
          <mxGeometry x="775.17" y="1255" width="81.83" height="80" as="geometry" />
        </mxCell>
        <mxCell id="5etwCpMxE4oLLcc9KyQS-36" value="" style="endArrow=none;html=1;rounded=0;exitX=-0.229;exitY=0.209;exitDx=0;exitDy=0;exitPerimeter=0;" parent="1" source="5etwCpMxE4oLLcc9KyQS-21" edge="1">
          <mxGeometry width="50" height="50" relative="1" as="geometry">
            <mxPoint x="1064" y="1333" as="sourcePoint" />
            <mxPoint x="855" y="1295" as="targetPoint" />
          </mxGeometry>
        </mxCell>
        <mxCell id="5etwCpMxE4oLLcc9KyQS-37" value="" style="endArrow=none;html=1;rounded=0;entryX=0.25;entryY=1;entryDx=0;entryDy=0;" parent="1" target="i4O2-oKmXaow56ydcxL1-136" edge="1">
          <mxGeometry width="50" height="50" relative="1" as="geometry">
            <mxPoint x="777" y="1296" as="sourcePoint" />
            <mxPoint x="827" y="1246" as="targetPoint" />
          </mxGeometry>
        </mxCell>
        <mxCell id="5etwCpMxE4oLLcc9KyQS-38" value="Realtor" style="rounded=0;whiteSpace=wrap;html=1;" parent="1" vertex="1">
          <mxGeometry x="1565" y="819.75" width="120" height="60" as="geometry" />
        </mxCell>
        <mxCell id="5etwCpMxE4oLLcc9KyQS-39" value="Realty_Company" style="rounded=0;whiteSpace=wrap;html=1;" parent="1" vertex="1">
          <mxGeometry x="1984" y="819.75" width="120" height="60" as="geometry" />
        </mxCell>
        <mxCell id="5etwCpMxE4oLLcc9KyQS-40" value="Work_For" style="rhombus;whiteSpace=wrap;html=1;" parent="1" vertex="1">
          <mxGeometry x="1812" y="921" width="80" height="80" as="geometry" />
        </mxCell>
        <mxCell id="5etwCpMxE4oLLcc9KyQS-41" value="Years_of_Experience" style="ellipse;whiteSpace=wrap;html=1;" parent="1" vertex="1">
          <mxGeometry x="1741" y="779" width="113" height="79" as="geometry" />
        </mxCell>
        <mxCell id="5etwCpMxE4oLLcc9KyQS-42" value="License_Number" style="ellipse;whiteSpace=wrap;html=1;" parent="1" vertex="1">
          <mxGeometry x="1413" y="790" width="113" height="79" as="geometry" />
        </mxCell>
        <mxCell id="5etwCpMxE4oLLcc9KyQS-43" value="Last_Name" style="ellipse;whiteSpace=wrap;html=1;" parent="1" vertex="1">
          <mxGeometry x="1557" y="705" width="113" height="79" as="geometry" />
        </mxCell>
        <mxCell id="5etwCpMxE4oLLcc9KyQS-44" value="Seller_Realtor" style="rhombus;whiteSpace=wrap;html=1;" parent="1" vertex="1">
          <mxGeometry x="1185" y="986" width="80" height="80" as="geometry" />
        </mxCell>
        <mxCell id="5etwCpMxE4oLLcc9KyQS-45" value="" style="endArrow=none;html=1;rounded=0;entryX=0;entryY=0.5;entryDx=0;entryDy=0;" parent="1" target="5etwCpMxE4oLLcc9KyQS-44" edge="1">
          <mxGeometry width="50" height="50" relative="1" as="geometry">
            <mxPoint x="900" y="946" as="sourcePoint" />
            <mxPoint x="950" y="896" as="targetPoint" />
          </mxGeometry>
        </mxCell>
        <mxCell id="5etwCpMxE4oLLcc9KyQS-46" value="" style="endArrow=none;html=1;rounded=0;entryX=0;entryY=1;entryDx=0;entryDy=0;exitX=1;exitY=0.5;exitDx=0;exitDy=0;" parent="1" source="5etwCpMxE4oLLcc9KyQS-44" target="5etwCpMxE4oLLcc9KyQS-38" edge="1">
          <mxGeometry width="50" height="50" relative="1" as="geometry">
            <mxPoint x="1289" y="948" as="sourcePoint" />
            <mxPoint x="1339" y="898" as="targetPoint" />
          </mxGeometry>
        </mxCell>
        <mxCell id="5etwCpMxE4oLLcc9KyQS-47" value="First_Name" style="ellipse;whiteSpace=wrap;html=1;" parent="1" vertex="1">
          <mxGeometry x="1456" y="721" width="113" height="79" as="geometry" />
        </mxCell>
        <mxCell id="5etwCpMxE4oLLcc9KyQS-48" value="Address" style="ellipse;whiteSpace=wrap;html=1;" parent="1" vertex="1">
          <mxGeometry x="1667" y="714" width="113" height="79" as="geometry" />
        </mxCell>
        <mxCell id="5etwCpMxE4oLLcc9KyQS-54" value="" style="endArrow=none;html=1;rounded=0;" parent="1" edge="1">
          <mxGeometry width="50" height="50" relative="1" as="geometry">
            <mxPoint x="1754.83" y="651.7099999999999" as="sourcePoint" />
            <mxPoint x="1734.83" y="711.7099999999999" as="targetPoint" />
          </mxGeometry>
        </mxCell>
        <mxCell id="5etwCpMxE4oLLcc9KyQS-55" value="" style="endArrow=none;html=1;rounded=0;" parent="1" edge="1">
          <mxGeometry width="50" height="50" relative="1" as="geometry">
            <mxPoint x="1804.83" y="681.7099999999999" as="sourcePoint" />
            <mxPoint x="1754.83" y="721.7099999999999" as="targetPoint" />
          </mxGeometry>
        </mxCell>
        <mxCell id="5etwCpMxE4oLLcc9KyQS-56" value="" style="endArrow=none;html=1;rounded=0;" parent="1" edge="1">
          <mxGeometry width="50" height="50" relative="1" as="geometry">
            <mxPoint x="1824.83" y="741.71" as="sourcePoint" />
            <mxPoint x="1774.83" y="741.71" as="targetPoint" />
          </mxGeometry>
        </mxCell>
        <mxCell id="5etwCpMxE4oLLcc9KyQS-57" value="" style="endArrow=none;html=1;rounded=0;" parent="1" edge="1">
          <mxGeometry width="50" height="50" relative="1" as="geometry">
            <mxPoint x="1688" y="663" as="sourcePoint" />
            <mxPoint x="1714.83" y="711.7099999999999" as="targetPoint" />
          </mxGeometry>
        </mxCell>
        <mxCell id="5etwCpMxE4oLLcc9KyQS-58" value="Apartment_Number" style="ellipse;whiteSpace=wrap;html=1;rotation=30;" parent="1" vertex="1">
          <mxGeometry x="1714.46" y="596.25" width="101.83" height="60" as="geometry" />
        </mxCell>
        <mxCell id="5etwCpMxE4oLLcc9KyQS-59" value="Street" style="ellipse;whiteSpace=wrap;html=1;rotation=-15;" parent="1" vertex="1">
          <mxGeometry x="1645" y="606" width="70" height="60" as="geometry" />
        </mxCell>
        <mxCell id="5etwCpMxE4oLLcc9KyQS-60" value="Province" style="ellipse;whiteSpace=wrap;html=1;rotation=45;" parent="1" vertex="1">
          <mxGeometry x="1800" y="647.9999999999999" width="70" height="60" as="geometry" />
        </mxCell>
        <mxCell id="5etwCpMxE4oLLcc9KyQS-61" value="city" style="ellipse;whiteSpace=wrap;html=1;rotation=45;" parent="1" vertex="1">
          <mxGeometry x="1824" y="708" width="70" height="60" as="geometry" />
        </mxCell>
        <mxCell id="5etwCpMxE4oLLcc9KyQS-62" value="Email_Address" style="ellipse;whiteSpace=wrap;html=1;" parent="1" vertex="1">
          <mxGeometry x="1494" y="904" width="113" height="79" as="geometry" />
        </mxCell>
        <mxCell id="5etwCpMxE4oLLcc9KyQS-63" value="Phone_Number" style="ellipse;whiteSpace=wrap;html=1;" parent="1" vertex="1">
          <mxGeometry x="1609" y="907" width="113" height="79" as="geometry" />
        </mxCell>
        <mxCell id="5etwCpMxE4oLLcc9KyQS-64" value="" style="endArrow=none;html=1;rounded=0;entryX=0;entryY=0.5;entryDx=0;entryDy=0;" parent="1" target="5etwCpMxE4oLLcc9KyQS-38" edge="1">
          <mxGeometry width="50" height="50" relative="1" as="geometry">
            <mxPoint x="1522" y="843.5" as="sourcePoint" />
            <mxPoint x="1572" y="793.5" as="targetPoint" />
          </mxGeometry>
        </mxCell>
        <mxCell id="5etwCpMxE4oLLcc9KyQS-65" value="" style="endArrow=none;html=1;rounded=0;entryX=0.25;entryY=0;entryDx=0;entryDy=0;" parent="1" target="5etwCpMxE4oLLcc9KyQS-38" edge="1">
          <mxGeometry width="50" height="50" relative="1" as="geometry">
            <mxPoint x="1540" y="796" as="sourcePoint" />
            <mxPoint x="1590" y="746" as="targetPoint" />
          </mxGeometry>
        </mxCell>
        <mxCell id="5etwCpMxE4oLLcc9KyQS-66" value="" style="endArrow=none;html=1;rounded=0;entryX=0.617;entryY=0.021;entryDx=0;entryDy=0;entryPerimeter=0;" parent="1" target="5etwCpMxE4oLLcc9KyQS-38" edge="1">
          <mxGeometry width="50" height="50" relative="1" as="geometry">
            <mxPoint x="1620" y="785.5" as="sourcePoint" />
            <mxPoint x="1670" y="735.5" as="targetPoint" />
          </mxGeometry>
        </mxCell>
        <mxCell id="5etwCpMxE4oLLcc9KyQS-67" value="" style="endArrow=none;html=1;rounded=0;entryX=0.321;entryY=1.004;entryDx=0;entryDy=0;entryPerimeter=0;" parent="1" target="5etwCpMxE4oLLcc9KyQS-48" edge="1">
          <mxGeometry width="50" height="50" relative="1" as="geometry">
            <mxPoint x="1654" y="819.75" as="sourcePoint" />
            <mxPoint x="1704" y="769.75" as="targetPoint" />
          </mxGeometry>
        </mxCell>
        <mxCell id="5etwCpMxE4oLLcc9KyQS-68" value="" style="endArrow=none;html=1;rounded=0;entryX=0;entryY=1;entryDx=0;entryDy=0;" parent="1" target="5etwCpMxE4oLLcc9KyQS-41" edge="1">
          <mxGeometry width="50" height="50" relative="1" as="geometry">
            <mxPoint x="1688" y="850" as="sourcePoint" />
            <mxPoint x="1738" y="800" as="targetPoint" />
          </mxGeometry>
        </mxCell>
        <mxCell id="5etwCpMxE4oLLcc9KyQS-69" value="" style="endArrow=none;html=1;rounded=0;entryX=0.25;entryY=1;entryDx=0;entryDy=0;" parent="1" target="5etwCpMxE4oLLcc9KyQS-38" edge="1">
          <mxGeometry width="50" height="50" relative="1" as="geometry">
            <mxPoint x="1552" y="902" as="sourcePoint" />
            <mxPoint x="1602" y="852" as="targetPoint" />
          </mxGeometry>
        </mxCell>
        <mxCell id="5etwCpMxE4oLLcc9KyQS-70" value="" style="endArrow=none;html=1;rounded=0;entryX=0.5;entryY=1;entryDx=0;entryDy=0;" parent="1" target="5etwCpMxE4oLLcc9KyQS-38" edge="1">
          <mxGeometry width="50" height="50" relative="1" as="geometry">
            <mxPoint x="1647" y="908" as="sourcePoint" />
            <mxPoint x="1697" y="858" as="targetPoint" />
          </mxGeometry>
        </mxCell>
        <mxCell id="5etwCpMxE4oLLcc9KyQS-71" value="&lt;u&gt;Realtor_ID&lt;/u&gt;" style="ellipse;whiteSpace=wrap;html=1;" parent="1" vertex="1">
          <mxGeometry x="1331.08" y="838" width="101.83" height="66" as="geometry" />
        </mxCell>
        <mxCell id="5etwCpMxE4oLLcc9KyQS-72" value="" style="endArrow=none;html=1;rounded=0;entryX=0;entryY=0.75;entryDx=0;entryDy=0;exitX=1;exitY=0.5;exitDx=0;exitDy=0;" parent="1" source="5etwCpMxE4oLLcc9KyQS-71" target="5etwCpMxE4oLLcc9KyQS-38" edge="1">
          <mxGeometry width="50" height="50" relative="1" as="geometry">
            <mxPoint x="1442" y="891" as="sourcePoint" />
            <mxPoint x="1491.83" y="841" as="targetPoint" />
          </mxGeometry>
        </mxCell>
        <mxCell id="5etwCpMxE4oLLcc9KyQS-73" value="Address" style="ellipse;whiteSpace=wrap;html=1;" parent="1" vertex="1">
          <mxGeometry x="2149" y="688" width="120" height="80" as="geometry" />
        </mxCell>
        <mxCell id="5etwCpMxE4oLLcc9KyQS-74" value="Name" style="ellipse;whiteSpace=wrap;html=1;" parent="1" vertex="1">
          <mxGeometry x="1976" y="677" width="120" height="80" as="geometry" />
        </mxCell>
        <mxCell id="5etwCpMxE4oLLcc9KyQS-75" value="&lt;u&gt;Realty_Company_ID&lt;/u&gt;" style="ellipse;whiteSpace=wrap;html=1;" parent="1" vertex="1">
          <mxGeometry x="2195" y="904" width="121" height="67" as="geometry" />
        </mxCell>
        <mxCell id="5etwCpMxE4oLLcc9KyQS-76" value="Phone_Number" style="ellipse;whiteSpace=wrap;html=1;" parent="1" vertex="1">
          <mxGeometry x="2189" y="800" width="120" height="80" as="geometry" />
        </mxCell>
        <mxCell id="5etwCpMxE4oLLcc9KyQS-78" value="" style="endArrow=none;html=1;rounded=0;entryX=0.5;entryY=1;entryDx=0;entryDy=0;exitX=0.404;exitY=-0.06;exitDx=0;exitDy=0;exitPerimeter=0;" parent="1" source="5etwCpMxE4oLLcc9KyQS-39" target="5etwCpMxE4oLLcc9KyQS-74" edge="1">
          <mxGeometry width="50" height="50" relative="1" as="geometry">
            <mxPoint x="2011" y="815.25" as="sourcePoint" />
            <mxPoint x="2061" y="765.25" as="targetPoint" />
          </mxGeometry>
        </mxCell>
        <mxCell id="5etwCpMxE4oLLcc9KyQS-79" value="" style="endArrow=none;html=1;rounded=0;entryX=0;entryY=1;entryDx=0;entryDy=0;" parent="1" target="5etwCpMxE4oLLcc9KyQS-73" edge="1">
          <mxGeometry width="50" height="50" relative="1" as="geometry">
            <mxPoint x="2081" y="819.75" as="sourcePoint" />
            <mxPoint x="2131" y="769.75" as="targetPoint" />
          </mxGeometry>
        </mxCell>
        <mxCell id="5etwCpMxE4oLLcc9KyQS-80" value="" style="endArrow=none;html=1;rounded=0;entryX=0;entryY=0.5;entryDx=0;entryDy=0;" parent="1" target="5etwCpMxE4oLLcc9KyQS-76" edge="1">
          <mxGeometry width="50" height="50" relative="1" as="geometry">
            <mxPoint x="2106" y="847" as="sourcePoint" />
            <mxPoint x="2156" y="797" as="targetPoint" />
          </mxGeometry>
        </mxCell>
        <mxCell id="5etwCpMxE4oLLcc9KyQS-81" value="" style="endArrow=none;html=1;rounded=0;entryX=0.017;entryY=0.36;entryDx=0;entryDy=0;entryPerimeter=0;" parent="1" target="5etwCpMxE4oLLcc9KyQS-75" edge="1">
          <mxGeometry width="50" height="50" relative="1" as="geometry">
            <mxPoint x="2104" y="880" as="sourcePoint" />
            <mxPoint x="2154" y="830" as="targetPoint" />
          </mxGeometry>
        </mxCell>
        <mxCell id="5etwCpMxE4oLLcc9KyQS-82" value="" style="endArrow=none;html=1;rounded=0;" parent="1" edge="1">
          <mxGeometry width="50" height="50" relative="1" as="geometry">
            <mxPoint x="2251.83" y="629.5699999999999" as="sourcePoint" />
            <mxPoint x="2231.83" y="689.5699999999999" as="targetPoint" />
          </mxGeometry>
        </mxCell>
        <mxCell id="5etwCpMxE4oLLcc9KyQS-83" value="" style="endArrow=none;html=1;rounded=0;" parent="1" edge="1">
          <mxGeometry width="50" height="50" relative="1" as="geometry">
            <mxPoint x="2301.83" y="659.5699999999999" as="sourcePoint" />
            <mxPoint x="2251.83" y="699.5699999999999" as="targetPoint" />
          </mxGeometry>
        </mxCell>
        <mxCell id="5etwCpMxE4oLLcc9KyQS-84" value="" style="endArrow=none;html=1;rounded=0;" parent="1" edge="1">
          <mxGeometry width="50" height="50" relative="1" as="geometry">
            <mxPoint x="2321.83" y="719.57" as="sourcePoint" />
            <mxPoint x="2271.83" y="719.57" as="targetPoint" />
          </mxGeometry>
        </mxCell>
        <mxCell id="5etwCpMxE4oLLcc9KyQS-85" value="" style="endArrow=none;html=1;rounded=0;" parent="1" edge="1">
          <mxGeometry width="50" height="50" relative="1" as="geometry">
            <mxPoint x="2173" y="639" as="sourcePoint" />
            <mxPoint x="2211.83" y="689.5699999999999" as="targetPoint" />
          </mxGeometry>
        </mxCell>
        <mxCell id="5etwCpMxE4oLLcc9KyQS-86" value="Apartment_Number" style="ellipse;whiteSpace=wrap;html=1;rotation=30;" parent="1" vertex="1">
          <mxGeometry x="2201.2" y="571.36" width="112.83" height="60" as="geometry" />
        </mxCell>
        <mxCell id="5etwCpMxE4oLLcc9KyQS-87" value="Street" style="ellipse;whiteSpace=wrap;html=1;rotation=-15;" parent="1" vertex="1">
          <mxGeometry x="2136" y="590.86" width="70" height="60" as="geometry" />
        </mxCell>
        <mxCell id="5etwCpMxE4oLLcc9KyQS-88" value="Province" style="ellipse;whiteSpace=wrap;html=1;rotation=45;" parent="1" vertex="1">
          <mxGeometry x="2297" y="625.8599999999999" width="70" height="60" as="geometry" />
        </mxCell>
        <mxCell id="5etwCpMxE4oLLcc9KyQS-89" value="city" style="ellipse;whiteSpace=wrap;html=1;rotation=45;" parent="1" vertex="1">
          <mxGeometry x="2316" y="677" width="70" height="60" as="geometry" />
        </mxCell>
        <mxCell id="5etwCpMxE4oLLcc9KyQS-90" value="" style="endArrow=none;html=1;rounded=0;entryX=0;entryY=0.5;entryDx=0;entryDy=0;" parent="1" target="5etwCpMxE4oLLcc9KyQS-40" edge="1">
          <mxGeometry width="50" height="50" relative="1" as="geometry">
            <mxPoint x="1685" y="874.75" as="sourcePoint" />
            <mxPoint x="1735" y="824.75" as="targetPoint" />
          </mxGeometry>
        </mxCell>
        <mxCell id="5etwCpMxE4oLLcc9KyQS-91" value="" style="endArrow=none;html=1;rounded=0;entryX=0;entryY=1;entryDx=0;entryDy=0;" parent="1" target="5etwCpMxE4oLLcc9KyQS-39" edge="1">
          <mxGeometry width="50" height="50" relative="1" as="geometry">
            <mxPoint x="1892" y="962.5" as="sourcePoint" />
            <mxPoint x="1942" y="912.5" as="targetPoint" />
          </mxGeometry>
        </mxCell>
        <mxCell id="5etwCpMxE4oLLcc9KyQS-92" value="" style="endArrow=none;html=1;rounded=0;entryX=0;entryY=0.75;entryDx=0;entryDy=0;exitX=0.855;exitY=0.446;exitDx=0;exitDy=0;exitPerimeter=0;" parent="1" source="5etwCpMxE4oLLcc9KyQS-40" target="5etwCpMxE4oLLcc9KyQS-39" edge="1">
          <mxGeometry width="50" height="50" relative="1" as="geometry">
            <mxPoint x="1898" y="947" as="sourcePoint" />
            <mxPoint x="1948" y="897" as="targetPoint" />
          </mxGeometry>
        </mxCell>
        <mxCell id="5etwCpMxE4oLLcc9KyQS-95" value="Buyer_Realtor" style="rhombus;whiteSpace=wrap;html=1;" parent="1" vertex="1">
          <mxGeometry x="1185" y="902" width="80" height="80" as="geometry" />
        </mxCell>
        <mxCell id="5etwCpMxE4oLLcc9KyQS-96" value="" style="endArrow=none;html=1;rounded=0;exitX=1;exitY=0.5;exitDx=0;exitDy=0;" parent="1" source="5etwCpMxE4oLLcc9KyQS-95" edge="1">
          <mxGeometry width="50" height="50" relative="1" as="geometry">
            <mxPoint x="1294" y="937" as="sourcePoint" />
            <mxPoint x="1564" y="871" as="targetPoint" />
          </mxGeometry>
        </mxCell>
        <mxCell id="5etwCpMxE4oLLcc9KyQS-97" value="" style="endArrow=none;html=1;rounded=0;exitX=1;exitY=0.25;exitDx=0;exitDy=0;" parent="1" source="i4O2-oKmXaow56ydcxL1-147" edge="1">
          <mxGeometry width="50" height="50" relative="1" as="geometry">
            <mxPoint x="1137" y="992" as="sourcePoint" />
            <mxPoint x="1187" y="942" as="targetPoint" />
          </mxGeometry>
        </mxCell>
        <mxCell id="5etwCpMxE4oLLcc9KyQS-98" value="1" style="text;html=1;strokeColor=none;fillColor=none;align=center;verticalAlign=middle;whiteSpace=wrap;rounded=0;" parent="1" vertex="1">
          <mxGeometry x="429" y="570" width="60" height="30" as="geometry" />
        </mxCell>
        <mxCell id="5etwCpMxE4oLLcc9KyQS-99" value="M" style="text;html=1;strokeColor=none;fillColor=none;align=center;verticalAlign=middle;whiteSpace=wrap;rounded=0;" parent="1" vertex="1">
          <mxGeometry x="332" y="598.71" width="60" height="30" as="geometry" />
        </mxCell>
        <mxCell id="5etwCpMxE4oLLcc9KyQS-100" value="1" style="text;html=1;strokeColor=none;fillColor=none;align=center;verticalAlign=middle;whiteSpace=wrap;rounded=0;" parent="1" vertex="1">
          <mxGeometry x="570" y="677" width="60" height="30" as="geometry" />
        </mxCell>
        <mxCell id="5etwCpMxE4oLLcc9KyQS-101" value="1" style="text;html=1;strokeColor=none;fillColor=none;align=center;verticalAlign=middle;whiteSpace=wrap;rounded=0;" parent="1" vertex="1">
          <mxGeometry x="537" y="775.25" width="39" height="30" as="geometry" />
        </mxCell>
        <mxCell id="5etwCpMxE4oLLcc9KyQS-103" value="M" style="text;html=1;strokeColor=none;fillColor=none;align=center;verticalAlign=middle;whiteSpace=wrap;rounded=0;" parent="1" vertex="1">
          <mxGeometry x="740" y="1280" width="30" height="30" as="geometry" />
        </mxCell>
        <mxCell id="5etwCpMxE4oLLcc9KyQS-104" value="1" style="text;html=1;strokeColor=none;fillColor=none;align=center;verticalAlign=middle;whiteSpace=wrap;rounded=0;" parent="1" vertex="1">
          <mxGeometry x="857" y="1261.62" width="35" height="23" as="geometry" />
        </mxCell>
        <mxCell id="5etwCpMxE4oLLcc9KyQS-108" value="1" style="text;html=1;strokeColor=none;fillColor=none;align=center;verticalAlign=middle;whiteSpace=wrap;rounded=0;" parent="1" vertex="1">
          <mxGeometry x="740" y="743" width="20" height="30" as="geometry" />
        </mxCell>
        <mxCell id="5etwCpMxE4oLLcc9KyQS-110" value="M" style="text;html=1;strokeColor=none;fillColor=none;align=center;verticalAlign=middle;whiteSpace=wrap;rounded=0;" parent="1" vertex="1">
          <mxGeometry x="788" y="819.75" width="27" height="30" as="geometry" />
        </mxCell>
        <mxCell id="5etwCpMxE4oLLcc9KyQS-111" value="1" style="text;html=1;strokeColor=none;fillColor=none;align=center;verticalAlign=middle;whiteSpace=wrap;rounded=0;" parent="1" vertex="1">
          <mxGeometry x="847" y="735" width="20" height="30" as="geometry" />
        </mxCell>
        <mxCell id="5etwCpMxE4oLLcc9KyQS-113" value="M" style="text;html=1;strokeColor=none;fillColor=none;align=center;verticalAlign=middle;whiteSpace=wrap;rounded=0;" parent="1" vertex="1">
          <mxGeometry x="893" y="825" width="27" height="30" as="geometry" />
        </mxCell>
        <mxCell id="5etwCpMxE4oLLcc9KyQS-114" value="M" style="text;html=1;strokeColor=none;fillColor=none;align=center;verticalAlign=middle;whiteSpace=wrap;rounded=0;" parent="1" vertex="1">
          <mxGeometry x="1066.83" y="729.5" width="27" height="30" as="geometry" />
        </mxCell>
        <mxCell id="5etwCpMxE4oLLcc9KyQS-115" value="M" style="text;html=1;strokeColor=none;fillColor=none;align=center;verticalAlign=middle;whiteSpace=wrap;rounded=0;" parent="1" vertex="1">
          <mxGeometry x="998.9999999999999" y="793" width="27" height="30" as="geometry" />
        </mxCell>
        <mxCell id="5etwCpMxE4oLLcc9KyQS-117" value="1" style="text;html=1;strokeColor=none;fillColor=none;align=center;verticalAlign=middle;whiteSpace=wrap;rounded=0;" parent="1" vertex="1">
          <mxGeometry x="1253" y="902" width="30" height="29" as="geometry" />
        </mxCell>
        <mxCell id="5etwCpMxE4oLLcc9KyQS-118" value="M" style="text;html=1;strokeColor=none;fillColor=none;align=center;verticalAlign=middle;whiteSpace=wrap;rounded=0;" parent="1" vertex="1">
          <mxGeometry x="1157.17" y="946.5" width="30" height="29" as="geometry" />
        </mxCell>
        <mxCell id="5etwCpMxE4oLLcc9KyQS-119" value="1" style="text;html=1;strokeColor=none;fillColor=none;align=center;verticalAlign=middle;whiteSpace=wrap;rounded=0;" parent="1" vertex="1">
          <mxGeometry x="1258.83" y="975.5" width="30" height="29" as="geometry" />
        </mxCell>
        <mxCell id="5etwCpMxE4oLLcc9KyQS-120" value="M" style="text;html=1;strokeColor=none;fillColor=none;align=center;verticalAlign=middle;whiteSpace=wrap;rounded=0;" parent="1" vertex="1">
          <mxGeometry x="1151" y="1030" width="30" height="29" as="geometry" />
        </mxCell>
        <mxCell id="5etwCpMxE4oLLcc9KyQS-122" value="M" style="text;html=1;strokeColor=none;fillColor=none;align=center;verticalAlign=middle;whiteSpace=wrap;rounded=0;" parent="1" vertex="1">
          <mxGeometry x="1780" y="972.5" width="30" height="29" as="geometry" />
        </mxCell>
        <mxCell id="5etwCpMxE4oLLcc9KyQS-123" value="1" style="text;html=1;strokeColor=none;fillColor=none;align=center;verticalAlign=middle;whiteSpace=wrap;rounded=0;" parent="1" vertex="1">
          <mxGeometry x="1870" y="904" width="30" height="29" as="geometry" />
        </mxCell>
        <mxCell id="b5dhkCUvLlIxBhfAm2Ef-1" value="" style="endArrow=none;html=1;rounded=0;" parent="1" edge="1">
          <mxGeometry width="50" height="50" relative="1" as="geometry">
            <mxPoint x="150" y="598.86" as="sourcePoint" />
            <mxPoint x="218" y="598.57" as="targetPoint" />
          </mxGeometry>
        </mxCell>
        <mxCell id="b5dhkCUvLlIxBhfAm2Ef-2" value="Monthly Rent" style="ellipse;whiteSpace=wrap;html=1;rotation=-90;" parent="1" vertex="1">
          <mxGeometry x="331" y="857" width="120" height="80" as="geometry" />
        </mxCell>
        <mxCell id="b5dhkCUvLlIxBhfAm2Ef-3" value="&lt;u&gt;D&lt;/u&gt;ep&lt;u&gt;e&lt;/u&gt;n&lt;u&gt;de&lt;/u&gt;nt&lt;u&gt;ID&lt;/u&gt;" style="ellipse;whiteSpace=wrap;html=1;rotation=-90;" parent="1" vertex="1">
          <mxGeometry x="82" y="566.3000000000001" width="79" height="66.54" as="geometry" />
        </mxCell>
        <mxCell id="b5dhkCUvLlIxBhfAm2Ef-7" value="" style="endArrow=none;html=1;rounded=0;" parent="1" edge="1">
          <mxGeometry width="50" height="50" relative="1" as="geometry">
            <mxPoint x="873" y="898.75" as="sourcePoint" />
            <mxPoint x="882.5" y="819.75" as="targetPoint" />
          </mxGeometry>
        </mxCell>
        <mxCell id="b5dhkCUvLlIxBhfAm2Ef-8" value="" style="endArrow=none;html=1;rounded=0;" parent="1" edge="1">
          <mxGeometry width="50" height="50" relative="1" as="geometry">
            <mxPoint x="804.17" y="902" as="sourcePoint" />
            <mxPoint x="780.17" y="816" as="targetPoint" />
          </mxGeometry>
        </mxCell>
        <mxCell id="b5dhkCUvLlIxBhfAm2Ef-9" value="" style="endArrow=none;html=1;rounded=0;entryX=0.68;entryY=-0.232;entryDx=0;entryDy=0;entryPerimeter=0;" parent="1" target="5etwCpMxE4oLLcc9KyQS-99" edge="1">
          <mxGeometry width="50" height="50" relative="1" as="geometry">
            <mxPoint x="278" y="593.12" as="sourcePoint" />
            <mxPoint x="340" y="593" as="targetPoint" />
          </mxGeometry>
        </mxCell>
        <mxCell id="b5dhkCUvLlIxBhfAm2Ef-12" value="" style="endArrow=none;html=1;rounded=0;entryX=0.25;entryY=1;entryDx=0;entryDy=0;" parent="1" edge="1">
          <mxGeometry width="50" height="50" relative="1" as="geometry">
            <mxPoint x="787" y="1306" as="sourcePoint" />
            <mxPoint x="562" y="925" as="targetPoint" />
          </mxGeometry>
        </mxCell>
        <mxCell id="b5dhkCUvLlIxBhfAm2Ef-13" value="" style="endArrow=none;html=1;rounded=0;" parent="1" target="i4O2-oKmXaow56ydcxL1-103" edge="1">
          <mxGeometry width="50" height="50" relative="1" as="geometry">
            <mxPoint x="820" y="158.71" as="sourcePoint" />
            <mxPoint x="820" y="218.71" as="targetPoint" />
          </mxGeometry>
        </mxCell>
        <mxCell id="i4O2-oKmXaow56ydcxL1-103" value="Street" style="ellipse;whiteSpace=wrap;html=1;rotation=-15;" parent="1" vertex="1">
          <mxGeometry x="749.0000000000001" y="108.71" width="70" height="60" as="geometry" />
        </mxCell>
      </root>
    </mxGraphModel>
  </diagram>
</mxfile>
